{
    "asset" : {
        "generator" : "Khronos glTF Blender I/O v0.9.36",
        "version" : "2.0"
    },
    "scene" : 0,
    "scenes" : [
        {
            "name" : "Scene",
            "nodes" : [
                0
            ]
        }
    ],
    "nodes" : [
        {
            "mesh" : 0,
            "name" : "Torus",
            "scale" : [
                0.7971204519271851,
                0.7971204519271851,
                0.7971204519271851
            ]
        }
    ],
    "materials" : [
        {
            "doubleSided" : true,
            "name" : "Material.001",
            "pbrMetallicRoughness" : {}
        },
        {
            "doubleSided" : true,
            "name" : "Material.002",
            "pbrMetallicRoughness" : {}
        },
        {
            "doubleSided" : true,
            "name" : "Material.003",
            "pbrMetallicRoughness" : {}
        }
    ],
    "meshes" : [
        {
            "name" : "Torus",
            "primitives" : [
                {
                    "attributes" : {
                        "POSITION" : 0,
                        "NORMAL" : 1
                    },
                    "indices" : 2,
                    "material" : 0
                },
                {
                    "attributes" : {
                        "POSITION" : 3,
                        "NORMAL" : 4
                    },
                    "indices" : 5,
                    "material" : 1
                },
                {
                    "attributes" : {
                        "POSITION" : 6,
                        "NORMAL" : 7
                    },
                    "indices" : 8,
                    "material" : 2
                }
            ]
        }
    ],
    "accessors" : [
        {
            "bufferView" : 0,
            "componentType" : 5126,
            "count" : 1056,
            "max" : [
                1.25,
                0.25,
                1.25
            ],
            "min" : [
                -1.25,
                -0.25,
                -1.25
            ],
            "type" : "VEC3"
        },
        {
            "bufferView" : 1,
            "componentType" : 5126,
            "count" : 1056,
            "type" : "VEC3"
        },
        {
            "bufferView" : 2,
            "componentType" : 5123,
            "count" : 1584,
            "type" : "SCALAR"
        },
        {
            "bufferView" : 3,
            "componentType" : 5126,
            "count" : 1056,
            "max" : [
                1.25,
                0.25,
                1.25
            ],
            "min" : [
                -1.25,
                -0.25,
                -1.25
            ],
            "type" : "VEC3"
        },
        {
            "bufferView" : 4,
            "componentType" : 5126,
            "count" : 1056,
            "type" : "VEC3"
        },
        {
            "bufferView" : 5,
            "componentType" : 5123,
            "count" : 1584,
            "type" : "SCALAR"
        },
        {
            "bufferView" : 6,
            "componentType" : 5126,
            "count" : 192,
            "max" : [
                0.9916918277740479,
                0.25,
                0.8838839530944824
            ],
            "min" : [
                -0.9916916489601135,
                -0.25,
                -0.9916916489601135
            ],
            "type" : "VEC3"
        },
        {
            "bufferView" : 7,
            "componentType" : 5126,
            "count" : 192,
            "type" : "VEC3"
        },
        {
            "bufferView" : 8,
            "componentType" : 5123,
            "count" : 288,
            "type" : "SCALAR"
        }
    ],
    "bufferViews" : [
        {
            "buffer" : 0,
            "byteLength" : 12672,
            "byteOffset" : 0
        },
        {
            "buffer" : 0,
            "byteLength" : 12672,
            "byteOffset" : 12672
        },
        {
            "buffer" : 0,
            "byteLength" : 3168,
            "byteOffset" : 25344
        },
        {
            "buffer" : 0,
            "byteLength" : 12672,
            "byteOffset" : 28512
        },
        {
            "buffer" : 0,
            "byteLength" : 12672,
            "byteOffset" : 41184
        },
        {
            "buffer" : 0,
            "byteLength" : 3168,
            "byteOffset" : 53856
        },
        {
            "buffer" : 0,
            "byteLength" : 2304,
            "byteOffset" : 57024
        },
        {
            "buffer" : 0,
            "byteLength" : 2304,
            "byteOffset" : 59328
        },
        {
            "buffer" : 0,
            "byteLength" : 576,
            "byteOffset" : 61632
        }
    ],
    "buffers" : [
        {
            "byteLength" : 62208,
            "uri" : "data:application/octet-stream;base64,"
        }
    ]
}
